<?xml version="1.0" encoding="UTF-8"?>
<svg width="486px" height="228px" viewBox="0 0 486 228" version="1.1" xmlns="http://www.w3.org/2000/svg" xmlns:xlink="http://www.w3.org/1999/xlink">
    <!-- Generator: Sketch 49.3 (51167) - http://www.bohemiancoding.com/sketch -->
    <title>Group 2</title>
    <desc>Created with Sketch.</desc>
    <defs>
        <polygon id="path-1" points="163.956426 227.003851 163.956426 0 0 0 8.82720259e-15 227.003851 163.956426 227.003851"></polygon>
    </defs>
    <g id="Page-1" stroke="none" stroke-width="1" fill="none" fill-rule="evenodd">
        <g id="Group-2">
            <path d="M132,164.484993 L108.230347,164.484993 L108.230347,203 L80.5996344,203 L80.5996344,164.484993 L0,164.484993 L0,142.631651 L80.5996344,26 L108.230347,26 L108.230347,140.941337 L132,140.941337 L132,164.484993 Z M80.5996344,140.941337 L80.5996344,96.6309686 C80.5996344,80.8546278 81.0018241,67.9359303 81.8062157,57.8744884 L80.8409506,57.8744884 C78.5886542,63.1869297 75.0493843,69.6261559 70.2230347,77.1923602 L26.4241316,140.941337 L80.5996344,140.941337 Z" id="4" fill="#348EDE"></path>
            <g id="Group-33" transform="translate(167.000000, 0.000000)">
                <g id="Page-1">
                    <g id="Group-3" transform="translate(0.000000, 0.063713)">
                        <mask id="mask-2" fill="white">
                            <use xlink:href="#path-1"></use>
                        </mask>
                        <g id="Clip-2"></g>
                        <path d="M117.923132,72.0424103 C107.054909,66.7533006 94.8922198,63.6903535 81.9739861,63.6903535 C69.0663195,63.6903535 56.8983472,66.7533006 46.0354071,72.0424103 L46.0354071,65.558646 C46.0935259,46.6862606 62.1554607,31.3662624 81.9739861,31.3662624 C101.797795,31.3662624 117.865013,46.6862606 117.923132,65.558646 L117.923132,72.0424103 Z M81.9739861,183.492635 C60.8345779,183.492635 43.6948028,166.420126 43.6948028,145.358417 C43.6948028,124.291446 60.8345779,107.2242 81.9739861,107.2242 C103.123961,107.2242 120.263736,124.291446 120.263736,145.358417 C120.263736,166.420126 103.123961,183.492635 81.9739861,183.492635 L81.9739861,183.492635 Z M147.801501,96.8196525 L147.801501,62.8693574 L147.669413,62.8693574 C146.227009,27.89808 117.415913,0 81.9739861,0 C46.1357942,0 17.039388,28.5559295 16.2257242,64.0798004 L16.1517548,64.0798004 L16.1517548,96.8196525 C6.04964319,110.408191 0,127.143881 0,145.358417 C0,190.455314 36.6994075,227.00543 81.9739861,227.00543 C127.253848,227.00543 163.958539,190.455314 163.958539,145.358417 C163.958539,127.143881 157.903613,110.408191 147.801501,96.8196525 L147.801501,96.8196525 Z" id="Fill-1" fill="#348EDE" mask="url(#mask-2)"></path>
                    </g>
                    <path d="M82.1336226,126.808989 C72.6496841,126.808989 64.9568627,134.476882 64.9568627,143.9236 C64.9568627,153.380844 72.6496841,161.038212 82.1336226,161.038212 C91.6228446,161.038212 99.3156659,153.380844 99.3156659,143.9236 C99.3156659,134.476882 91.6228446,126.808989 82.1336226,126.808989" id="Fill-4" fill="#348EDE"></path>
                </g>
            </g>
            <path d="M480.244141,65.5488281 C480.244141,76.8607336 476.948275,86.2803986 470.356445,93.8081055 C463.764615,101.335812 454.487365,106.40168 442.524414,109.005859 L442.524414,109.982422 C456.847402,111.772795 467.589482,116.228317 474.750977,123.349121 C481.912471,130.469925 485.493164,139.93028 485.493164,151.730469 C485.493164,168.901779 479.430399,182.146275 467.304688,191.464355 C455.178976,200.782436 437.926544,205.441406 415.546875,205.441406 C395.771385,205.441406 379.08861,202.22692 365.498047,195.797852 L365.498047,170.285156 C373.066444,174.028665 381.082314,176.917633 389.545898,178.952148 C398.009482,180.986664 406.147422,182.003906 413.959961,182.003906 C427.794666,182.003906 438.129849,179.440455 444.96582,174.313477 C451.801792,169.186498 455.219727,161.252007 455.219727,150.509766 C455.219727,140.988234 451.435585,133.989606 443.867188,129.513672 C436.29879,125.037738 424.417399,122.799805 408.222656,122.799805 L392.719727,122.799805 L392.719727,99.484375 L408.466797,99.484375 C436.950012,99.484375 451.191406,89.6374683 451.191406,69.9433594 C451.191406,62.2935815 448.709335,56.3935754 443.745117,52.2431641 C438.7809,48.0927527 431.456754,46.0175781 421.772461,46.0175781 C415.01787,46.0175781 408.507518,46.973786 402.241211,48.8862305 C395.974904,50.7986749 388.569379,54.5217822 380.024414,60.0556641 L365.986328,40.0361328 C382.343832,27.9918018 401.34592,21.9697266 422.993164,21.9697266 C440.97828,21.9697266 455.016226,25.8352478 465.107422,33.5664062 C475.198618,41.2975647 480.244141,51.9582654 480.244141,65.5488281 Z" id="3" fill="#348EDE"></path>
        </g>
    </g>
</svg>