<svg xmlns="http://www.w3.org/2000/svg" width="479" height="185" viewBox="0 0 479 185">
    <g fill="#348EDE" fill-rule="evenodd">
        <path d="M132 143.485h-23.77V182H80.6v-38.515H0v-21.853L80.6 5h27.63v114.941H132v23.544zm-51.4-23.544v-44.31c0-15.776.402-28.695 1.206-38.757h-.965c-2.252 5.313-5.792 11.752-10.618 19.318l-43.799 63.75H80.6zM479 143.485h-23.77V182H427.6v-38.515H347v-21.853L427.6 5h27.63v114.941H479v23.544zm-51.4-23.544v-44.31c0-15.776.402-28.695 1.206-38.757h-.965c-2.252 5.313-5.792 11.752-10.618 19.318l-43.799 63.75H427.6zM286.149 85.045c-8.67 0-15.705-7.02-15.705-15.696 0-8.666 7.035-15.697 15.705-15.697s15.704 7.03 15.704 15.697c0 8.675-7.034 15.696-15.704 15.696m-88.992-15.696c0-8.666 7.034-15.697 15.704-15.697 8.67 0 15.705 7.03 15.705 15.697 0 8.675-7.034 15.696-15.705 15.696-8.67 0-15.704-7.02-15.704-15.696M249.5 0C170.977 0 171 73.249 171 73.249V185l19.64-26.133L210.244 185l19.607-26.133L249.461 185l19.609-26.133L288.68 185l19.624-26.133L328 185V73.249S328.022 0 249.5 0"/>
    </g>
</svg>
