<?xml version="1.0" encoding="UTF-8"?>
<svg width="521px" height="192px" viewBox="0 0 521 192" version="1.1" xmlns="http://www.w3.org/2000/svg" xmlns:xlink="http://www.w3.org/1999/xlink">
    <!-- Generator: Sketch 49.3 (51167) - http://www.bohemiancoding.com/sketch -->
    <title>Group</title>
    <desc>Created with Sketch.</desc>
    <defs>
        <polygon id="path-1" points="153 192 364 192 364 0 153 0"></polygon>
    </defs>
    <g id="Page-1" stroke="none" stroke-width="1" fill="none" fill-rule="evenodd">
        <g id="Group">
            <path d="M57.5332031,72.5498047 C75.5183191,72.5498047 89.7597131,77.3104993 100.257812,86.8320312 C110.755912,96.3535632 116.004883,109.333577 116.004883,125.772461 C116.004883,144.815525 110.043842,159.687609 98.121582,170.38916 C86.1993219,181.090711 69.252063,186.441406 47.2792969,186.441406 C27.3410461,186.441406 11.6755127,183.22692 0.282226562,176.797852 L0.282226562,150.796875 C6.8740564,154.540383 14.4423401,157.429352 22.9873047,159.463867 C31.5322693,161.498383 39.4667603,162.515625 46.7910156,162.515625 C59.7305334,162.515625 69.5774402,159.626656 76.3320312,153.848633 C83.0866223,148.070609 86.4638672,139.607152 86.4638672,128.458008 C86.4638672,107.136287 72.8735083,96.4755859 45.6923828,96.4755859 C41.8674939,96.4755859 37.147489,96.8621381 31.5322266,97.6352539 C25.9169641,98.4083698 20.9935107,99.2831982 16.7617188,100.259766 L3.94433594,92.6914062 L10.7802734,5.53320312 L103.553711,5.53320312 L103.553711,31.0458984 L36.0488281,31.0458984 L32.0205078,75.2353516 C34.8688293,74.7470679 38.3477985,74.1774121 42.4575195,73.5263672 C46.5672406,72.8753223 51.5924182,72.5498047 57.5332031,72.5498047 Z" id="5" fill="#348EDE"></path>
            <path d="M520.958008,96.7666016 C520.958008,127.772616 515.97352,150.802985 506.004395,165.858398 C496.035269,180.913812 480.796978,188.441406 460.289062,188.441406 C440.432192,188.441406 425.377004,180.669674 415.123047,165.125977 C404.869089,149.582279 399.742188,126.796049 399.742188,96.7666016 C399.742188,65.2723035 404.726675,42.0588312 414.695801,27.1254883 C424.664926,12.1921454 439.862528,4.72558594 460.289062,4.72558594 C480.227313,4.72558594 495.323191,12.5380078 505.577148,28.1630859 C515.831106,43.7881641 520.958008,66.6557739 520.958008,96.7666016 Z M428.794922,96.7666016 C428.794922,121.099406 431.297338,138.473906 436.302246,148.890625 C441.307154,159.307344 449.302679,164.515625 460.289062,164.515625 C471.275446,164.515625 479.311661,159.225964 484.397949,148.646484 C489.484238,138.067004 492.027344,120.773883 492.027344,96.7666016 C492.027344,72.8407007 489.484238,55.5272345 484.397949,44.8256836 C479.311661,34.1241327 471.275446,28.7734375 460.289062,28.7734375 C449.302679,28.7734375 441.307154,34.0224084 436.302246,44.5205078 C431.297338,55.0186072 428.794922,72.4337976 428.794922,96.7666016 Z" id="0" fill="#348EDE"></path>
            <path d="M285.456395,148.921803 C286.799899,147.308522 287.471651,145.047141 287.471651,142.140273 L287.471651,130.658275 L269.622735,130.658275 L269.622735,142.140273 C269.622735,145.047141 270.349336,147.308522 271.802537,148.921803 C273.255739,150.535084 275.558806,151.341725 278.711739,151.341725 C281.864672,151.341725 284.112891,150.535084 285.456395,148.921803 L285.456395,148.921803 Z M263.618537,158.645626 C260.657285,155.075849 259.176948,149.979321 259.176948,143.353718 L259.176948,130.658275 L219,130.658275 L219,118 L298,118 L298,144.181265 C298,150.216551 296.437101,155.0291 293.311592,158.616879 C290.185795,162.20611 285.346698,164 278.794012,164 C271.637991,164 266.5795,162.214241 263.618537,158.645626 L263.618537,158.645626 Z" id="Fill-3" fill="#D0021B"></path>
            <mask id="mask-2" fill="white">
                <use xlink:href="#path-1"></use>
            </mask>
            <g id="Clip-6"></g>
            <path d="M211.707989,28.7856072 L344.236915,28.7856072 L344.236915,19.2863568 L211.707989,19.2863568 L211.707989,28.7856072 Z M172.472452,172.713643 L344.236915,172.713643 L344.236915,48.071964 L172.472452,48.071964 L172.472452,172.713643 Z M177.257734,19.0603898 C179.91645,19.0603898 182.071789,21.1951304 182.071789,23.8284378 C182.071789,26.4617451 179.91645,28.5964858 177.257734,28.5964858 C174.599018,28.5964858 172.443679,26.4617451 172.443679,23.8284378 C172.443679,21.1951304 174.599018,19.0603898 177.257734,19.0603898 L177.257734,19.0603898 Z M197.02082,19.0603898 C199.679536,19.0603898 201.834875,21.1951304 201.834875,23.8284378 C201.834875,26.4617451 199.679536,28.5964858 197.02082,28.5964858 C194.362103,28.5964858 192.206764,26.4617451 192.206764,23.8284378 C192.206764,21.1951304 194.362103,19.0603898 197.02082,19.0603898 L197.02082,19.0603898 Z M162.812372,0 C157.425478,0 153,4.18168516 153,9.51882459 L153,182.429073 C153,187.764486 157.425478,192 162.812372,192 L354.123979,192 C359.514652,192 364,187.764486 364,182.429073 L364,9.51882459 C364,4.18168516 359.514652,0 354.123979,0 L162.812372,0 Z" id="Fill-5" fill="#348EDE" mask="url(#mask-2)"></path>
            <polygon id="Fill-1-Copy" fill="#D0021B" mask="url(#mask-2)" points="235 92.0000577 222.999914 79.9940897 234.997694 67.9933113 226.995042 60 214.996397 71.9993369 202.999481 60 195 67.9933113 206.99951 79.9995675 195 92.0000577 202.999481 100 214.996397 88.0000865 226.999366 100"></polygon>
            <polygon id="Fill-2-Copy" fill="#D0021B" mask="url(#mask-2)" points="322 92.0000577 309.999914 79.9940897 321.997694 67.9933113 313.995042 60 301.996397 71.9993369 289.999481 60 282 67.9933113 293.99951 79.9995675 282 92.0000577 289.999481 100 301.996397 88.0000865 313.999366 100"></polygon>
        </g>
    </g>
</svg>